PathFileType	4	(X/Y/Z)	/Users/visionmauri/Downloads/Videos/OAW09-top_Sports2D/OAW09-top_Sports2D_px_person00.trc
DataRate	CameraRate	NumFrames	NumMarkers	Units	OrigDataRate	OrigDataStartFrame	OrigNumFrames
30.0	30.0	11	22	m	30.0	1806	2065
Frame#	Time	Hip			RHip			RKnee			RAnkle			RBigToe			RSmallToe			RHeel			LHip			LKnee			LAnkle			LBigToe			LSmallToe			LHeel			Neck			Head			Nose			RShoulder			RElbow			RWrist			LShoulder			LElbow			LWrist			
		X1	Y1	Z1	X2	Y2	Z2	X3	Y3	Z3	X4	Y4	Z4	X5	Y5	Z5	X6	Y6	Z6	X7	Y7	Z7	X8	Y8	Z8	X9	Y9	Z9	X10	Y10	Z10	X11	Y11	Z11	X12	Y12	Z12	X13	Y13	Z13	X14	Y14	Z14	X15	Y15	Z15	X16	Y16	Z16	X17	Y17	Z17	X18	Y18	Z18	X19	Y19	Z19	X20	Y20	Z20	X21	Y21	Z21	X22	Y22	Z22
1806	60.22916666666666	585.559971860508	923.2039635120818	0.0	630.4883577910455	925.9955517954685	0.0	608.1072964439891	1098.1890759165387	0.0	589.4149318780934	1260.4493053905287	0.0	576.015279199649	1273.9751733010517	0.0	605.55941083497	1287.2502974268225	0.0	586.0124289789745	1292.1404112989767	0.0	545.2847029815833	925.4327213681372	0.0	537.8017425538804	1071.6037884034572	0.0	536.1137289500467	1194.5460822054788	0.0	535.4826919217717	1178.6086343663976	0.0	515.9608204141979	1189.3751509041458	0.0	537.0971164480499	1221.4615933185726	0.0	596.8395332629917	693.2314938993981	0.0	595.6538095408042	593.3547938822538	0.0	585.2684222408957	663.2654504146127	0.0	676.0397515753979	726.6043851013053	0.0	706.0241670449009	835.2469607701264	0.0	666.2860748562383	903.4184947801905	0.0	518.1951533928277	721.8492506222401	0.0	481.8962933146345	839.7305294831857	0.0	464.0789541042219	942.9155300145436	0.0
1807	60.26251614987079	585.290612013459	919.8806692726163	0.0	629.7918959536578	924.1157776230399	0.0	608.1923506577006	1095.258243794633	0.0	588.7397227083331	1258.6046620727125	0.0	575.0636889271531	1275.6993986335035	0.0	603.3294230956485	1288.861071716821	0.0	585.1693074548053	1291.342317814434	0.0	543.9585472250485	923.2750415208625	0.0	539.5874430122777	1064.7694767415626	0.0	539.7835519023182	1179.946573825649	0.0	538.0023050697005	1161.7149996301646	0.0	518.8037665995762	1174.0894007792685	0.0	540.9723696662815	1206.5161633761247	0.0	593.792885005271	691.7380275606422	0.0	590.3925152034382	596.7587418030544	0.0	575.4627900293474	664.5361919494751	0.0	672.8289193635846	725.3383172115447	0.0	703.3695178747981	830.2404870036752	0.0	663.2526618328152	896.2292162215768	0.0	516.4144603542827	721.742643785999	0.0	482.2980371367199	836.8084322650512	0.0	464.5695750344832	940.3984914277016	0.0
1808	60.295865633074925	584.3808576905537	915.4452529145617	0.0	628.5860689814175	920.3730231841969	0.0	608.204283770358	1090.1187241061007	0.0	588.7530835168055	1255.1236051376836	0.0	574.0903182704685	1277.0666940084047	0.0	602.3355567332175	1289.176489075857	0.0	585.3408972809704	1287.7457479458851	0.0	542.7997415022193	920.366721346919	0.0	540.3100123791407	1056.2837131777362	0.0	542.4489361273322	1166.6870980383276	0.0	539.6876164941318	1148.4451066120619	0.0	520.5040830651013	1162.6546480284164	0.0	543.834420037152	1192.0227431821208	0.0	590.5226493144731	690.6978403589595	0.0	585.2618052925253	600.0453304821085	0.0	564.5654035013565	665.3437298399763	0.0	669.2056007566921	723.4746618818099	0.0	700.7916947762011	825.0417405907997	0.0	660.9347066571991	891.1363845901305	0.0	514.2363540242596	721.5494113603334	0.0	482.5223931227995	834.5799957813142	0.0	465.65164672522644	938.4783049375081	0.0
1809	60.32921511627906	582.9282730682055	911.6226922867174	0.0	627.0241449994616	915.8942709510268	0.0	608.159799578777	1083.7086775628027	0.0	589.5367494153418	1249.4861961580382	0.0	574.0652731399126	1278.1090631016987	0.0	602.8856077411136	1287.7571879507989	0.0	586.8565638672553	1280.4532665904455	0.0	542.6297816324726	917.4121391676151	0.0	540.0675911562093	1048.8280933817077	0.0	543.9529848014181	1157.8022938503086	0.0	540.7576002363703	1141.8184352423864	0.0	521.7749366595528	1155.6702379837047	0.0	545.2333618444059	1182.067510774566	0.0	587.6248083477415	690.4749999779762	0.0	581.4422844587257	601.2459087051911	0.0	555.8557573208599	665.1075398049629	0.0	665.728842000887	720.8163332913708	0.0	697.9186950285462	821.4412008607828	0.0	659.0053106161588	889.1211620102024	0.0	512.3870436407686	720.7051169776493	0.0	482.43016754148033	834.6952854647883	0.0	466.96800933872504	937.857443422619	0.0
1810	60.36256459948319	581.043175426797	907.1385321223007	0.0	624.8076862104609	910.4398647937807	0.0	608.249164712303	1075.7904763069264	0.0	591.0537534048136	1241.3131185477544	0.0	575.4481002624714	1278.7498133185836	0.0	604.567625075353	1285.2592513554323	0.0	588.9122805080875	1270.7932874369578	0.0	542.2854689051145	912.9979870004616	0.0	539.359887291143	1043.4045049027702	0.0	544.2557931612148	1153.5475480312803	0.0	541.525508127568	1142.1780850069672	0.0	522.2417428717116	1153.7144296125648	0.0	545.5485849360844	1178.226611627045	0.0	585.1987349209503	691.0544923358126	0.0	578.9749979820789	599.2548169203745	0.0	552.5573083905355	663.0053666857691	0.0	662.548840952347	718.1407919561957	0.0	694.1091683760837	820.0574937335776	0.0	656.7477956164302	889.3248010357089	0.0	510.44579521466665	719.1699935213012	0.0	481.94154943981954	834.685283496253	0.0	467.84979713897445	936.667565556134	0.0
1811	60.39591408268733	578.6680631028951	900.3698812954028	0.0	621.5659410239913	903.2213498817105	0.0	608.2678981165459	1065.47813261926	0.0	593.143439262025	1230.1795784938622	0.0	578.5361343625058	1277.6612448638693	0.0	607.0934359221228	1281.0140987120383	0.0	590.6768949717349	1259.5373174216304	0.0	540.3079594222746	905.7328699486883	0.0	538.6707704399843	1039.3729289025305	0.0	543.3643753960617	1152.1679369855767	0.0	541.9109825148873	1146.5083279008966	0.0	521.5214438336211	1156.5436094755812	0.0	545.4953221548508	1178.4009741571965	0.0	582.5817585980438	691.2536887053725	0.0	576.167597062447	594.4816018421856	0.0	552.8852823409525	658.477988606548	0.0	659.2242090399561	715.4854662360127	0.0	689.4843230426995	819.9874603528634	0.0	654.1199378249552	890.4298189422211	0.0	507.4886182148732	716.8114298255517	0.0	480.86179508608615	831.8433278269717	0.0	468.0511038856901	932.3727347619131	0.0
1812	60.42926356589146	575.816002770859	893.348782032486	0.0	617.8642604786122	895.5880467166371	0.0	607.6030661008981	1053.5906008963057	0.0	595.7506024372005	1215.2560688448073	0.0	582.9947789184324	1271.8966062414324	0.0	610.46677854216	1272.3104259914173	0.0	592.2205828603707	1244.7213061504283	0.0	537.2552061785772	897.548345444725	0.0	538.5091523637831	1036.0891286913684	0.0	541.9985191434779	1152.6293549943332	0.0	542.1364914384781	1150.9726188134803	0.0	520.6828118816613	1161.9680937269593	0.0	545.3085370875989	1179.7441714134422	0.0	579.1925536210872	688.9865743458614	0.0	571.5173082301803	589.1799600725294	0.0	551.545562577196	653.5260172730275	0.0	655.5813888399082	711.7588112858001	0.0	684.8352266440298	819.8011712581911	0.0	651.9187357135842	891.8306664345915	0.0	503.9354897358259	712.9777305334651	0.0	479.25208663824395	827.0624989801813	0.0	467.8124561841895	925.1070527759122	0.0
1813	60.462613049095594	572.6526660762127	888.6665120526122	0.0	614.4376492151534	890.0723281288342	0.0	605.8129840882445	1042.3603156858055	0.0	598.1664621720066	1196.330652605729	0.0	587.5460450633547	1259.6292740178012	0.0	614.0068059086194	1257.7972765753889	0.0	593.3999096277183	1225.0848428629606	0.0	534.5134741530613	891.8823531378652	0.0	538.7620568581735	1033.3683691772499	0.0	541.2088051333942	1153.9718955172177	0.0	542.5062674560131	1152.563365026482	0.0	520.33658455364	1166.4154424588485	0.0	544.8078135996324	1180.7819545725117	0.0	575.4719959082001	684.2594836184286	0.0	566.1637895878738	585.5856012392317	0.0	547.8162959507564	651.0770248663047	0.0	651.9686169308602	707.0330196547885	0.0	680.7192007396803	818.6222951337991	0.0	651.162861047019	892.8450135099986	0.0	501.2314374245056	707.8466864287594	0.0	477.32110663515067	822.2554869352509	0.0	467.3250661353374	916.5663351301796	0.0
1814	60.49596253229973	569.3746368907907	884.9402409246552	0.0	611.0510450602592	886.5990341251993	0.0	603.195062026406	1032.4479951899505	0.0	598.875588992247	1175.1026026536067	0.0	590.9098090661421	1241.4269333799095	0.0	616.3671194835754	1238.5897902824915	0.0	593.3139461171882	1203.1173682167127	0.0	532.073455881248	888.4092854892701	0.0	538.659804275728	1030.8012318728483	0.0	541.1304552081494	1154.5973910827709	0.0	542.8519410454154	1151.700219755986	0.0	520.0753963467614	1167.6930549694046	0.0	543.8943345290031	1180.935717153999	0.0	572.7054818465028	679.6660687199859	0.0	562.9006854613558	583.5932768454395	0.0	547.4244075242627	649.8932784517403	0.0	648.8385060054612	703.1075158037031	0.0	676.9125710697682	816.4391796701088	0.0	652.4222533048395	892.5117977831169	0.0	499.9920984915817	702.6860581436447	0.0	475.3128916950624	816.7131139565888	0.0	466.4253682938429	907.3305628907827	0.0
1815	60.52931201550387	566.2633646643064	879.5219144979488	0.0	607.581046286813	882.6532020528077	0.0	600.2860341906387	1022.8092592838688	0.0	597.0384200802772	1154.5477896175628	0.0	592.6556492259743	1218.4404511717787	0.0	616.7778353705763	1216.1071734982704	0.0	591.4500986557616	1182.3039697052259	0.0	529.3714106473645	883.6753461072278	0.0	537.8205787001449	1027.7454698857387	0.0	541.0304050442239	1154.082819404354	0.0	543.019719489844	1152.080332539827	0.0	520.2865906457724	1166.9629213152152	0.0	542.6593076892484	1180.2912908278558	0.0	571.7490108181926	676.389267937031	0.0	562.4849961080832	581.7997361401758	0.0	552.8755125929927	646.4043271525627	0.0	646.6975522530328	700.762777152341	0.0	672.9289402639989	813.8657530938989	0.0	654.9805370991136	890.9620889791211	0.0	499.58330798411487	698.1116946997497	0.0	473.60198448028666	808.9756280713068	0.0	465.0843729315043	897.5110856018939	0.0
1816	60.562661498708	563.835718717947	872.9394729467913	0.0	604.8610412849441	877.5307534406867	0.0	597.1264303861118	1013.3843894021012	0.0	593.4312957382766	1137.188314942849	0.0	592.6686277390128	1194.0255178114226	0.0	615.3064263776173	1193.2289985465156	0.0	588.2530374416654	1164.548225622837	0.0	527.0698184504317	877.0576380536153	0.0	536.7608867334176	1023.9686661948158	0.0	540.7074777986763	1153.3670852477871	0.0	543.0659774606194	1155.6921798251167	0.0	521.4998721389795	1166.9285075822283	0.0	541.5871802640971	1179.5926608960515	0.0	571.7195224343653	672.8673761245777	0.0	563.1337556050113	578.8433099287447	0.0	559.7387542459919	640.134803098679	0.0	645.409334607461	698.3503087279336	0.0	668.9371389430264	811.055933456747	0.0	657.4244104597796	889.2825696688718	0.0	499.17013660228184	693.8540068779494	0.0	472.2103883143445	800.2737167786212	0.0	463.7176587110105	887.5762693652024	0.0
